# xmcd
#
# Track frame offsets:
# 150
# 19292
# 38035
# 62528
# 93855
# 113108
# 134175
# 158408
# 173585
# 200382
# 218805
# 232365
#
# Disc length: 3377 seconds
#
#
# Revision: 2
# Processed by: cddbd v1.5.1PL0 Copyright (c) Steve Scherf et al.
# Submitted via: FreeRIP 2.90 
#
DISCID=a10d2f0c
DTITLE=Solon Fishbone y Los Cobras - Blues From Southlands
DYEAR=1900
DGENRE=
TTITLE0=El Sabor
TTITLE1=She So Hard To Find
TTITLE2=Rock Me Baby
TTITLE3=Three Years Of My Life
TTITLE4=Licks From  Heaven
TTITLE5=Walkin By Myself
TTITLE6=Little Black Haired
TTITLE7=I've Got My Eyes On You
TTITLE8=Find a Fool, Bump His Head
TTITLE9=Surfin With The Guitar
TTITLE10=Let Me Love You Little Baby
TTITLE11=What's On Your Mind
EXTD=Solon Fishbone is a Brazilian Bluesman and this is your first album.
EXTT0=
EXTT1=
EXTT2=song by B.B. King
EXTT3=
EXTT4=
EXTT5=Song by Jimmy Rogers
EXTT6=
EXTT7=
EXTT8=Song by La Salle
EXTT9=
EXTT10=
EXTT11=Song by Blues Etílicos
PLAYORDER=
